<?xml version="1.0" encoding="UTF-8"?>
<svg width="512px" height="512px" viewBox="0 0 512 512" xmlns="http://www.w3.org/2000/svg" xmlns:xlink="http://www.w3.org/1999/xlink" version="1.1">
 <!-- Generated by Pixelmator Pro 2.0.6 -->
 <defs>
  <path id="Rounded-Rectangle" d="M40 0 C17.909 0 0 17.909 0 40 L0 472 C0 494.091 17.909 512 40 512 L472 512 C494.091 512 512 494.091 512 472 L512 40 C512 17.909 494.091 0 472 0 Z"/>
 </defs>
 <use id="Rounded-Rectangle-1" xlink:href="#Rounded-Rectangle" fill="#000000" fill-opacity="0.42" stroke="none"/>
 <defs>
  <path id="stroke-path" d="M480.328 508.063 L487.234 505.734 493.422 502.156 496.172 500 499.984 496.188 504.094 490.422 506.375 485.656 508.422 478.484 508.984 472.906 508.875 37.172 508.031 31.656 505.719 24.766 502.172 18.609 497.484 13.203 491.969 8.875 485.563 5.594 478.469 3.578 471.906 3 40.094 3 33.516 3.578 26.422 5.594 20.016 8.875 14.5 13.203 9.813 18.609 6.266 24.766 3.938 31.703 3.313 35.219 3 40.188 3.109 474.844 3.953 480.359 6.266 487.25 9.813 493.406 14.5 498.813 20.016 503.141 26.422 506.422 33.516 508.438 40.063 509 472.906 509 Z"/>
 </defs>
 <use id="Rounded-Rectangle-2" stroke="#d5d5d5" stroke-opacity="0.909" stroke-linecap="round" fill="none" stroke-width="6" xlink:href="#stroke-path"/>
 <path id="Documents" d="M201.224 330 C192.736 330 186 323.488 186 315 L186 131 C185.854 122.887 192.736 116.006 201.224 116.006 L353.292 116.006 C361.781 116.006 369 122.512 369 131 L369 315 C368.662 323.119 361.781 330 353.292 330 L201.224 330 Z M166.938 288.177 C153.717 288.177 143 277.46 143 264.24 L143 96.938 C143 83.717 153.717 73 166.938 73 L303.05 73 C316.27 73 326.987 83.717 326.987 96.938 L327 105 197 105 C184.83 104.774 175 114.596 175 127 L175 288 166.938 288.177 Z M218 269 L333 269 C335.109 269.127 336.678 267.558 336.678 265.622 336.678 263.687 334.936 262 333 262 L218 262 C215.589 262.118 214.02 263.687 214.02 265.622 214.02 267.558 216.064 269 218 269 Z M218 248 L291 248 C293.055 248.1 294.624 246.531 294.624 244.595 294.624 242.66 292.936 241 291 241 L218 241 C215.589 241.091 214.02 242.66 214.02 244.595 214.02 246.531 216.064 248 218 248 Z M218 227 L305 227 C307.073 227.073 308.642 225.504 308.642 223.568 308.642 221.633 306.936 220 305 220 L218 220 C215.589 220.064 214.02 221.633 214.02 223.568 214.02 225.504 216.064 227 218 227 Z M218 206 L279 206 C281.14 206.046 282.709 204.476 282.709 202.541 282.709 200.605 280.936 199 279 199 L218 199 C215.589 199.036 214.02 200.605 214.02 202.541 214.02 204.476 216.064 206 218 206 Z M218 185 L333 185 C335.109 185.018 336.678 183.449 336.678 181.514 336.678 179.578 334.936 178 333 178 L218 178 C215.589 178.009 214.02 179.578 214.02 181.514 214.02 183.449 216.064 185 218 185 Z M218 164 L291 164 C293.055 163.991 294.624 162.422 294.624 160.487 294.624 158.551 292.936 157 291 157 L218 157 C215.589 156.982 214.02 158.551 214.02 160.487 214.02 162.422 216.064 164 218 164 Z" fill="#d5d5d5" fill-opacity="1" stroke="none"/>
 <defs>
  <text id="string" transform="matrix(1.0 0.0 0.0 1.0 3.625 359.0)" font-family="HelveticaNeue, Helvetica Neue" font-size="44" text-decoration="none" fill="#ffffff" x="38.22" y="42.0">Load .GB/.GBC/.GBA</text>
 </defs>
 <use id="Load-.GB/.GBC/.GBA" xlink:href="#string"/>
 <defs>
  <text id="string-1" transform="matrix(1.0 0.0 0.0 1.0 3.625 425.5)" y="26.0" x="173.98399999999998" text-decoration="none" fill="#ffffff" font-size="27" font-family="HelveticaNeue, Helvetica Neue">(drag &amp; drop)</text>
 </defs>
 <use id="(drag-&amp;-drop)" xlink:href="#string-1"/>
</svg>
