<?xml version="1.0" standalone="no"?>
<!DOCTYPE svg PUBLIC "-//W3C//DTD SVG 20010904//EN"
 "http://www.w3.org/TR/2001/REC-SVG-20010904/DTD/svg10.dtd">
<svg version="1.0" xmlns="http://www.w3.org/2000/svg"
 width="598.000000pt" height="598.000000pt" viewBox="0 0 598.000000 598.000000"
 preserveAspectRatio="xMidYMid meet">
<metadata>
Created by potrace 1.14, written by Peter Selinger 2001-2017
</metadata>
<g transform="translate(0.000000,598.000000) scale(0.100000,-0.100000)"
fill="#000000" stroke="none">
<path d="M3697 5115 c-376 -64 -688 -301 -852 -648 -69 -146 -100 -277 -110
-463 -3 -54 -9 -101 -13 -105 -4 -4 -43 -9 -87 -13 -44 -3 -105 -10 -135 -16
-30 -5 -68 -12 -85 -14 -41 -7 -167 -41 -245 -66 -380 -121 -789 -387 -1125
-733 -172 -176 -269 -291 -290 -341 -31 -73 -11 -147 53 -193 l39 -29 -38 -12
c-76 -24 -245 -106 -327 -159 -156 -103 -187 -183 -88 -231 103 -51 377 -42
693 23 72 14 213 48 290 69 l92 24 35 -26 c91 -69 128 -95 224 -152 230 -136
514 -250 812 -325 l125 -32 3 -304 c3 -300 3 -304 27 -340 41 -64 66 -69 307
-69 212 0 214 0 251 25 71 49 91 139 47 211 -33 52 -79 68 -205 70 -60 1 -112
2 -115 3 -3 0 -5 74 -4 164 3 197 2 189 12 184 4 -3 32 -8 62 -11 30 -4 69 -8
85 -10 78 -11 241 -19 348 -19 l117 1 0 -250 c0 -236 1 -252 21 -288 12 -21
38 -47 59 -59 35 -19 52 -21 244 -21 232 0 256 5 300 63 53 69 33 173 -41 218
-32 20 -51 23 -157 23 l-121 1 3 174 c1 96 5 177 7 180 3 2 42 15 87 28 226
65 421 184 589 356 31 32 65 59 75 61 10 2 44 7 74 11 118 16 265 79 370 160
308 237 403 652 228 1000 -55 109 -158 230 -251 293 l-38 25 49 28 c65 37 108
88 127 151 8 28 15 57 15 64 0 10 28 14 108 16 l107 3 -3 30 c-6 52 -51 133
-92 165 -60 48 -108 60 -236 60 -102 0 -114 2 -115 18 -3 65 -36 212 -65 289
-88 234 -246 431 -456 571 -91 60 -264 133 -353 148 -16 3 -46 9 -65 15 -55
16 -285 19 -373 4z"/>
</g>
</svg>
