<?xml version="1.0" encoding="UTF-8" standalone="no"?>
<!-- Created with Inkscape (http://www.inkscape.org/) -->

<svg
   width="158.24997mm"
   height="158.24997mm"
   viewBox="0 0 158.24997 158.24997"
   version="1.1"
   id="svg5"
   xml:space="preserve"
   inkscape:version="1.2 (dc2aeda, 2022-05-15)"
   sodipodi:docname="icon.svg"
   xmlns:inkscape="http://www.inkscape.org/namespaces/inkscape"
   xmlns:sodipodi="http://sodipodi.sourceforge.net/DTD/sodipodi-0.dtd"
   xmlns="http://www.w3.org/2000/svg"
   xmlns:svg="http://www.w3.org/2000/svg"><sodipodi:namedview
     id="namedview7"
     pagecolor="#ffffff"
     bordercolor="#000000"
     borderopacity="0.25"
     inkscape:showpageshadow="2"
     inkscape:pageopacity="0.0"
     inkscape:pagecheckerboard="0"
     inkscape:deskcolor="#d1d1d1"
     inkscape:document-units="mm"
     showgrid="false"
     inkscape:zoom="0.05177681"
     inkscape:cx="2800.4815"
     inkscape:cy="-4152.4381"
     inkscape:window-width="1438"
     inkscape:window-height="997"
     inkscape:window-x="242"
     inkscape:window-y="25"
     inkscape:window-maximized="0"
     inkscape:current-layer="layer1" /><defs
     id="defs2" /><g
     inkscape:label="Layer 1"
     inkscape:groupmode="layer"
     id="layer1"
     transform="translate(-0.49481893,-0.42313224)"><rect
       style="fill:#6f8a91;fill-opacity:1;stroke-width:0;stroke-dasharray:none"
       id="rect319"
       width="158.24997"
       height="158.24997"
       x="0.49481893"
       y="0.42313224" /><g
       id="g107"
       transform="matrix(0.26458333,0,0,0.26458333,9.3640395,10.410744)"><g
         id="g13">
	<path
   style="fill:#fadc60"
   d="m 341.81,464.43 h 35.151 c 8.44,0 15.283,-6.842 15.283,-15.283 0,-8.44 -6.842,-15.283 -15.283,-15.283 h -19.868 v -55.019 c 0,-8.44 -6.842,-15.283 -15.283,-15.283 -8.44,0 -15.283,6.842 -15.283,15.283 v 70.302 c 0.001,8.441 6.843,15.283 15.283,15.283 z"
   id="path9" />
	<path
   style="fill:#fadc60"
   d="m 248.637,464.43 h 35.151 c 8.44,0 15.283,-6.842 15.283,-15.283 0,-8.44 -6.842,-15.283 -15.283,-15.283 H 263.92 v -55.019 c 0,-8.44 -6.842,-15.283 -15.283,-15.283 -8.44,0 -15.283,6.842 -15.283,15.283 v 70.302 c 0,8.441 6.842,15.283 15.283,15.283 z"
   id="path11" />
</g><path
         style="fill:#b8b8b8"
         d="M 113.396,339.551 C -12.191,374.368 -34.451,342.26 51.562,310.346 l 25.969,-10.173 48.312,10.697 z"
         id="path15" /><path
         style="fill:#506366"
         d="m 428.462,192.507 c -102.021,0 -175.448,78.238 -203.84,114.246 -6.974,8.845 -3,21.949 7.743,25.335 38.298,12.071 98.94,21.841 194.92,21.92 44.71,0.037 81.772,-35.751 81.928,-80.461 0.156,-44.731 -36.057,-81.04 -80.751,-81.04 z"
         id="path17" /><g
         id="g23">
	<path
   style="fill:#f2c42c"
   d="m 341.81,363.563 c -8.44,0 -15.283,6.842 -15.283,15.283 v 49.285 c 10.706,-0.533 20.883,-1.719 30.565,-3.573 v -45.712 c 0.002,-8.44 -6.84,-15.283 -15.282,-15.283 z"
   id="path19" />
	<path
   style="fill:#f2c42c"
   d="m 263.92,424.729 v -45.883 c 0,-8.44 -6.842,-15.283 -15.283,-15.283 -8.441,0 -15.283,6.842 -15.283,15.283 v 40.593 c 9.95,2.074 20.146,3.837 30.566,5.29 z"
   id="path21" />
</g><path
         style="fill:#efedee"
         d="M 353.543,47.57 C 290.604,47.787 240.066,99.746 240.066,162.684 v 128.264 c 0,3.106 0.129,6.182 0.373,9.225 0,0 -162.86,0 -162.91,0 1.284,0 10.646,15.076 11.924,16.539 44.053,50.431 116.122,74.23 180.424,82.849 45.973,6.163 96.122,5.404 135.615,-22.116 38.553,-26.866 62.332,-73.002 62.332,-119.929 V 161.447 C 467.825,98.42 416.621,47.352 353.543,47.57 Z"
         id="path25" /><path
         style="fill:#b8b8b8"
         d="m 277.526,300.174 c -0.244,-3.044 -0.373,-6.119 -0.373,-9.225 V 162.684 c 0,-56.778 41.132,-104.614 95.391,-113.595 -6.181,-1.016 -12.527,-1.542 -19.001,-1.52 -62.939,0.217 -113.477,52.176 -113.477,115.114 v 128.264 c 0,3.106 0.129,6.181 0.373,9.225 21.514,0.002 37.087,0.002 37.087,0.002 z"
         id="path27" /><path
         style="fill:#506366"
         d="m 247.659,170.766 c -102.021,0 -175.448,78.238 -203.84,114.246 -6.974,8.845 -3,21.949 7.743,25.335 38.298,12.071 98.94,21.841 194.92,21.92 44.71,0.037 81.772,-35.751 81.928,-80.461 0.155,-44.73 -36.058,-81.04 -80.751,-81.04 z"
         id="path29" /><g
         id="g35">
	<path
   style="fill:#3a484a"
   d="m 354.825,156.019 c -4.267,0 -7.726,-3.459 -7.726,-7.726 V 130.3 c 0,-4.267 3.459,-7.726 7.726,-7.726 4.267,0 7.726,3.459 7.726,7.726 v 17.992 c 0,4.268 -3.459,7.727 -7.726,7.727 z"
   id="path31" />
	<path
   style="fill:#3a484a"
   d="m 433.021,156.019 c -4.267,0 -7.726,-3.459 -7.726,-7.726 V 130.3 c 0,-4.267 3.459,-7.726 7.726,-7.726 4.267,0 7.726,3.459 7.726,7.726 v 17.992 c 0,4.268 -3.459,7.727 -7.726,7.727 z"
   id="path33" />
</g><path
         style="fill:#f2c42c"
         d="m 438.837,166.97 -47.023,12.172 h -0.6 v 0.156 c 0,14.348 11.626,25.975 25.975,25.975 h 47.28 c 14.432,0 26.131,-11.699 26.131,-26.131 z"
         id="path37" /><path
         style="fill:#fadc60"
         d="M 511.999,179.141 H 391.215 c 0,-14.348 11.626,-25.975 25.975,-25.975 h 68.835 c 14.338,0 25.974,11.626 25.974,25.975 z"
         id="path39" /><g
         id="g41">
</g><g
         id="g43">
</g><g
         id="g45">
</g><g
         id="g47">
</g><g
         id="g49">
</g><g
         id="g51">
</g><g
         id="g53">
</g><g
         id="g55">
</g><g
         id="g57">
</g><g
         id="g59">
</g><g
         id="g61">
</g><g
         id="g63">
</g><g
         id="g65">
</g><g
         id="g67">
</g><g
         id="g69">
</g></g><ellipse
       style="display:inline;fill:#11002b;fill-opacity:0;stroke-width:0;stroke-dasharray:none"
       id="path5083"
       cx="36.470051"
       cy="25.575729"
       rx="10.522003"
       ry="8.5178118" /></g></svg>
